<?xml version="1.0" encoding="UTF-8"?>
<svg width="54px" height="18px" viewBox="0 0 54 18" version="1.1" xmlns="http://www.w3.org/2000/svg" xmlns:xlink="http://www.w3.org/1999/xlink">
    <!-- Generator: Sketch 43.2 (39069) - http://www.bohemiancoding.com/sketch -->
    <title>tag</title>
    <desc>Created with Sketch.</desc>
    <defs></defs>
    <g id="home" stroke="none" stroke-width="1" fill="none" fill-rule="evenodd">
        <g id="tag-copy">
            <g id="tag">
                <polyline id="Rectangle" fill="#CDAB6A" opacity="0.649999976" points="0 18 54 18 46 0 0 0"></polyline>
                <polygon id="Rectangle" fill="#CDAB6A" opacity="0.649999976" points="0 0 54 0 46 18 0 18"></polygon>
                <path d="M18.22,6.07 L19.19,6.07 L19.19,13 L18.22,13 L18.22,9.8 L14.83,9.8 L14.83,13 L13.86,13 L13.86,6.07 L14.83,6.07 L14.83,8.96 L18.22,8.96 L18.22,6.07 Z M21.03,9.53 C21.03,8.9366637 21.1183325,8.4133356 21.295,7.96 C21.4716676,7.5066644 21.7116652,7.12833485 22.015,6.825 C22.3183349,6.52166515 22.6716647,6.2933341 23.075,6.14 C23.4783354,5.9866659 23.9066644,5.91 24.36,5.91 C24.8066689,5.91 25.2283314,5.9866659 25.625,6.14 C26.0216687,6.2933341 26.3699985,6.52166515 26.67,6.825 C26.9700015,7.12833485 27.2083325,7.5066644 27.385,7.96 C27.5616676,8.4133356 27.65,8.9366637 27.65,9.53 C27.65,10.1233363 27.5616676,10.6466644 27.385,11.1 C27.2083325,11.5533356 26.9700015,11.9316652 26.67,12.235 C26.3699985,12.5383349 26.0216687,12.7666659 25.625,12.92 C25.2283314,13.0733341 24.8066689,13.15 24.36,13.15 C23.9066644,13.15 23.4783354,13.0733341 23.075,12.92 C22.6716647,12.7666659 22.3183349,12.5383349 22.015,12.235 C21.7116652,11.9316652 21.4716676,11.5533356 21.295,11.1 C21.1183325,10.6466644 21.03,10.1233363 21.03,9.53 Z M22.05,9.53 C22.05,9.9500021 22.1033328,10.331665 22.21,10.675 C22.3166672,11.018335 22.4683324,11.3099988 22.665,11.55 C22.8616677,11.7900012 23.1016653,11.9749994 23.385,12.105 C23.6683348,12.2350006 23.9866649,12.3 24.34,12.3 C24.6933351,12.3 25.0099986,12.2350006 25.29,12.105 C25.5700014,11.9749994 25.8083324,11.7900012 26.005,11.55 C26.2016677,11.3099988 26.3533328,11.018335 26.46,10.675 C26.5666672,10.331665 26.62,9.9500021 26.62,9.53 C26.62,9.1099979 26.5666672,8.72833505 26.46,8.385 C26.3533328,8.04166495 26.2016677,7.7500012 26.005,7.51 C25.8083324,7.2699988 25.5700014,7.08500065 25.29,6.955 C25.0099986,6.82499935 24.6933351,6.76 24.34,6.76 C23.9866649,6.76 23.6683348,6.82499935 23.385,6.955 C23.1016653,7.08500065 22.8616677,7.2699988 22.665,7.51 C22.4683324,7.7500012 22.3166672,8.04166495 22.21,8.385 C22.1033328,8.72833505 22.05,9.1099979 22.05,9.53 Z M33.85,6.07 L33.85,6.91 L31.67,6.91 L31.67,13 L30.7,13 L30.7,6.91 L28.52,6.91 L28.52,6.07 L33.85,6.07 Z" id="HOT" fill="#FFFFFF"></path>
            </g>
        </g>
    </g>
</svg>